<mxfile host="Electron" modified="2023-05-27T09:09:25.725Z" agent="Mozilla/5.0 (Windows NT 10.0; Win64; x64) AppleWebKit/537.36 (KHTML, like Gecko) draw.io/21.2.8 Chrome/112.0.5615.165 Electron/24.2.0 Safari/537.36" etag="ga0YO0sKlHHpKDe3sdYs" version="21.2.8" type="device">
  <diagram name="Page-1" id="0783ab3e-0a74-02c8-0abd-f7b4e66b4bec">
    <mxGraphModel dx="675" dy="394" grid="1" gridSize="10" guides="1" tooltips="1" connect="1" arrows="1" fold="1" page="1" pageScale="1" pageWidth="827" pageHeight="1169" background="none" math="0" shadow="0">
      <root>
        <mxCell id="0" />
        <mxCell id="1" parent="0" />
        <mxCell id="1c1d494c118603dd-2" value="&lt;font color=&quot;#516a8f&quot;&gt;動作者&lt;/font&gt;" style="swimlane;html=1;startSize=20;fillColor=#dae8fc;strokeColor=#516A8F;" parent="1" vertex="1">
          <mxGeometry x="175" y="80" width="250" height="540" as="geometry" />
        </mxCell>
        <mxCell id="CdWKcS6R5QREeGc17HmZ-15" value="&lt;font color=&quot;#516a8f&quot;&gt;輸入帳號密碼&lt;/font&gt;" style="rounded=1;whiteSpace=wrap;html=1;shadow=0;comic=0;labelBackgroundColor=none;strokeWidth=1;fontFamily=Verdana;fontSize=12;align=center;arcSize=15;fillColor=#dae8fc;strokeColor=#516A8F;glass=0;" parent="1c1d494c118603dd-2" vertex="1">
          <mxGeometry x="75" y="175" width="100" height="30" as="geometry" />
        </mxCell>
        <mxCell id="CdWKcS6R5QREeGc17HmZ-17" value="&lt;font color=&quot;#516a8f&quot;&gt;按下登入按鈕&lt;/font&gt;" style="rounded=1;whiteSpace=wrap;html=1;shadow=0;comic=0;labelBackgroundColor=none;strokeWidth=1;fontFamily=Verdana;fontSize=12;align=center;arcSize=15;fillColor=#dae8fc;strokeColor=#516A8F;glass=0;" parent="1c1d494c118603dd-2" vertex="1">
          <mxGeometry x="75" y="240" width="100" height="30" as="geometry" />
        </mxCell>
        <mxCell id="CdWKcS6R5QREeGc17HmZ-18" style="edgeStyle=none;rounded=0;html=1;labelBackgroundColor=none;startArrow=none;startFill=0;startSize=5;endArrow=classic;endFill=1;endSize=5;jettySize=auto;orthogonalLoop=1;strokeWidth=1;fontFamily=Verdana;fontSize=12;exitX=0.5;exitY=1;exitDx=0;exitDy=0;strokeColor=#516A8F;arcSize=20;entryX=0.5;entryY=0;entryDx=0;entryDy=0;" parent="1c1d494c118603dd-2" source="CdWKcS6R5QREeGc17HmZ-15" target="CdWKcS6R5QREeGc17HmZ-17" edge="1">
          <mxGeometry relative="1" as="geometry">
            <mxPoint x="124.66" y="270" as="sourcePoint" />
            <mxPoint x="124.66" y="320" as="targetPoint" />
          </mxGeometry>
        </mxCell>
        <mxCell id="t5bb0kTeRHAlqyquHPTp-1" value="&lt;p style=&quot;line-height: 130%;&quot;&gt;&lt;font color=&quot;#516a8f&quot;&gt;若同IP連續10次登入失敗，則禁止登入1小時&lt;/font&gt;&lt;/p&gt;" style="shape=note;whiteSpace=wrap;html=1;backgroundOutline=1;darkOpacity=0.05;size=12;fillColor=#dae8fc;strokeColor=#516A8F;align=left;labelPadding=0;noLabel=0;" parent="1c1d494c118603dd-2" vertex="1">
          <mxGeometry x="25" y="320" width="135" height="60" as="geometry" />
        </mxCell>
        <mxCell id="t5bb0kTeRHAlqyquHPTp-2" style="rounded=0;orthogonalLoop=1;jettySize=auto;html=1;strokeColor=#516A8F;endArrow=none;endFill=0;dashed=1;strokeWidth=1;entryX=0.5;entryY=1;entryDx=0;entryDy=0;exitX=0.5;exitY=0;exitDx=0;exitDy=0;exitPerimeter=0;" parent="1c1d494c118603dd-2" source="t5bb0kTeRHAlqyquHPTp-1" target="CdWKcS6R5QREeGc17HmZ-17" edge="1">
          <mxGeometry relative="1" as="geometry">
            <mxPoint x="45" y="210" as="targetPoint" />
          </mxGeometry>
        </mxCell>
        <mxCell id="t5bb0kTeRHAlqyquHPTp-7" value="&lt;p style=&quot;line-height: 130%;&quot;&gt;&lt;font color=&quot;#516a8f&quot;&gt;密碼比對的是SHA256值，不是明文&lt;/font&gt;&lt;/p&gt;" style="shape=note;whiteSpace=wrap;html=1;backgroundOutline=1;darkOpacity=0.05;size=12;fillColor=#dae8fc;strokeColor=#516A8F;align=left;labelPadding=0;noLabel=0;" parent="1c1d494c118603dd-2" vertex="1">
          <mxGeometry x="95" y="420" width="135" height="60" as="geometry" />
        </mxCell>
        <mxCell id="1c1d494c118603dd-3" value="&lt;font color=&quot;#516a8f&quot;&gt;系統&lt;/font&gt;" style="swimlane;html=1;startSize=20;fillColor=#dae8fc;strokeColor=#516A8F;" parent="1" vertex="1">
          <mxGeometry x="425" y="80" width="250" height="540" as="geometry" />
        </mxCell>
        <mxCell id="CdWKcS6R5QREeGc17HmZ-11" value="&lt;font color=&quot;#516a8f&quot;&gt;顯示登入畫面&lt;/font&gt;" style="rounded=1;whiteSpace=wrap;html=1;shadow=0;comic=0;labelBackgroundColor=none;strokeWidth=1;fontFamily=Verdana;fontSize=12;align=center;arcSize=15;fillColor=#dae8fc;strokeColor=#516A8F;glass=0;" parent="1c1d494c118603dd-3" vertex="1">
          <mxGeometry x="85" y="110" width="100" height="30" as="geometry" />
        </mxCell>
        <mxCell id="CdWKcS6R5QREeGc17HmZ-20" value="&lt;font color=&quot;#516a8f&quot;&gt;驗證資料&lt;br&gt;是否存在且正確&lt;/font&gt;" style="rounded=1;whiteSpace=wrap;html=1;shadow=0;comic=0;labelBackgroundColor=none;strokeWidth=1;fontFamily=Verdana;fontSize=12;align=center;arcSize=15;fillColor=#dae8fc;strokeColor=#516A8F;glass=0;" parent="1c1d494c118603dd-3" vertex="1">
          <mxGeometry x="85" y="235" width="100" height="40" as="geometry" />
        </mxCell>
        <mxCell id="CdWKcS6R5QREeGc17HmZ-29" value="" style="rhombus;whiteSpace=wrap;html=1;fillColor=#fff2cc;strokeColor=#d6b656;" parent="1c1d494c118603dd-3" vertex="1">
          <mxGeometry x="115" y="310" width="40" height="40" as="geometry" />
        </mxCell>
        <mxCell id="CdWKcS6R5QREeGc17HmZ-30" style="edgeStyle=none;rounded=0;html=1;labelBackgroundColor=none;startArrow=none;startFill=0;startSize=5;endArrow=classic;endFill=1;endSize=5;jettySize=auto;orthogonalLoop=1;strokeWidth=1;fontFamily=Verdana;fontSize=12;exitX=0.5;exitY=1;exitDx=0;exitDy=0;strokeColor=#516A8F;arcSize=20;entryX=0.5;entryY=0;entryDx=0;entryDy=0;" parent="1c1d494c118603dd-3" source="CdWKcS6R5QREeGc17HmZ-20" target="CdWKcS6R5QREeGc17HmZ-29" edge="1">
          <mxGeometry relative="1" as="geometry">
            <mxPoint x="-65" y="315" as="sourcePoint" />
            <mxPoint x="95" y="315" as="targetPoint" />
          </mxGeometry>
        </mxCell>
        <mxCell id="CdWKcS6R5QREeGc17HmZ-31" style="edgeStyle=none;rounded=0;html=1;labelBackgroundColor=none;startArrow=none;startFill=0;startSize=5;endArrow=classic;endFill=1;endSize=5;jettySize=auto;orthogonalLoop=1;strokeWidth=1;fontFamily=Verdana;fontSize=12;exitX=0.5;exitY=1;exitDx=0;exitDy=0;strokeColor=#82b366;arcSize=20;entryX=0.5;entryY=0;entryDx=0;entryDy=0;fillColor=#d5e8d4;" parent="1c1d494c118603dd-3" source="CdWKcS6R5QREeGc17HmZ-29" target="t5bb0kTeRHAlqyquHPTp-3" edge="1">
          <mxGeometry relative="1" as="geometry">
            <mxPoint x="134.71" y="410" as="sourcePoint" />
            <mxPoint x="135" y="400" as="targetPoint" />
          </mxGeometry>
        </mxCell>
        <mxCell id="CdWKcS6R5QREeGc17HmZ-32" value="&lt;font color=&quot;#82b366&quot;&gt;驗證成功&lt;/font&gt;" style="edgeLabel;html=1;align=center;verticalAlign=middle;resizable=0;points=[];" parent="CdWKcS6R5QREeGc17HmZ-31" vertex="1" connectable="0">
          <mxGeometry y="24" relative="1" as="geometry">
            <mxPoint as="offset" />
          </mxGeometry>
        </mxCell>
        <mxCell id="CdWKcS6R5QREeGc17HmZ-33" style="edgeStyle=none;rounded=1;html=1;labelBackgroundColor=none;startArrow=none;startFill=0;startSize=5;endArrow=classic;endFill=1;endSize=5;jettySize=auto;orthogonalLoop=1;strokeWidth=1;fontFamily=Verdana;fontSize=12;exitX=1;exitY=0.5;exitDx=0;exitDy=0;strokeColor=#b85450;arcSize=15;entryX=1;entryY=0.5;entryDx=0;entryDy=0;fillColor=#f8cecc;" parent="1c1d494c118603dd-3" source="CdWKcS6R5QREeGc17HmZ-29" target="CdWKcS6R5QREeGc17HmZ-35" edge="1">
          <mxGeometry relative="1" as="geometry">
            <mxPoint x="145" y="410" as="sourcePoint" />
            <mxPoint x="235" y="250" as="targetPoint" />
            <Array as="points">
              <mxPoint x="225" y="330" />
              <mxPoint x="225" y="190" />
            </Array>
          </mxGeometry>
        </mxCell>
        <mxCell id="CdWKcS6R5QREeGc17HmZ-44" value="&lt;font color=&quot;#b85450&quot;&gt;驗證失敗&lt;/font&gt;" style="edgeLabel;html=1;align=center;verticalAlign=middle;resizable=0;points=[];" parent="CdWKcS6R5QREeGc17HmZ-33" vertex="1" connectable="0">
          <mxGeometry x="-0.8" y="8" relative="1" as="geometry">
            <mxPoint as="offset" />
          </mxGeometry>
        </mxCell>
        <mxCell id="CdWKcS6R5QREeGc17HmZ-35" value="" style="rhombus;whiteSpace=wrap;html=1;fillColor=#dae8fc;strokeColor=#516A8F;" parent="1c1d494c118603dd-3" vertex="1">
          <mxGeometry x="125" y="180" width="20" height="20" as="geometry" />
        </mxCell>
        <mxCell id="CdWKcS6R5QREeGc17HmZ-38" style="edgeStyle=none;rounded=0;html=1;labelBackgroundColor=none;startArrow=none;startFill=0;startSize=5;endArrow=classic;endFill=1;endSize=5;jettySize=auto;orthogonalLoop=1;strokeWidth=1;fontFamily=Verdana;fontSize=12;exitX=0.5;exitY=1;exitDx=0;exitDy=0;strokeColor=#516A8F;arcSize=20;entryX=0.5;entryY=0;entryDx=0;entryDy=0;" parent="1c1d494c118603dd-3" source="CdWKcS6R5QREeGc17HmZ-11" target="CdWKcS6R5QREeGc17HmZ-35" edge="1">
          <mxGeometry relative="1" as="geometry">
            <mxPoint x="-65" y="145" as="sourcePoint" />
            <mxPoint x="95" y="145" as="targetPoint" />
          </mxGeometry>
        </mxCell>
        <mxCell id="CdWKcS6R5QREeGc17HmZ-10" value="" style="group" parent="1c1d494c118603dd-3" vertex="1" connectable="0">
          <mxGeometry x="119" y="480" width="32" height="32" as="geometry" />
        </mxCell>
        <mxCell id="CdWKcS6R5QREeGc17HmZ-8" value="" style="ellipse;whiteSpace=wrap;html=1;aspect=fixed;fillColor=#b85450;strokeColor=#f8cecc;" parent="CdWKcS6R5QREeGc17HmZ-10" vertex="1">
          <mxGeometry x="1" y="1" width="30" height="30" as="geometry" />
        </mxCell>
        <mxCell id="CdWKcS6R5QREeGc17HmZ-9" value="" style="ellipse;whiteSpace=wrap;html=1;aspect=fixed;fillColor=none;strokeColor=#B85450;" parent="CdWKcS6R5QREeGc17HmZ-10" vertex="1">
          <mxGeometry width="32" height="32" as="geometry" />
        </mxCell>
        <mxCell id="60571a20871a0731-4" value="" style="ellipse;whiteSpace=wrap;html=1;rounded=0;shadow=0;comic=0;labelBackgroundColor=none;strokeWidth=1;fillColor=#d5e8d4;fontFamily=Verdana;fontSize=12;align=center;strokeColor=#82b366;" parent="1c1d494c118603dd-3" vertex="1">
          <mxGeometry x="120" y="50" width="30" height="30" as="geometry" />
        </mxCell>
        <mxCell id="1c1d494c118603dd-39" style="edgeStyle=none;rounded=0;html=1;labelBackgroundColor=none;startArrow=none;startFill=0;startSize=5;endArrow=classic;endFill=1;endSize=5;jettySize=auto;orthogonalLoop=1;strokeWidth=1;fontFamily=Verdana;fontSize=12;exitX=0.5;exitY=1;exitDx=0;exitDy=0;strokeColor=#516A8F;arcSize=20;entryX=0.5;entryY=0;entryDx=0;entryDy=0;" parent="1c1d494c118603dd-3" source="60571a20871a0731-4" target="CdWKcS6R5QREeGc17HmZ-11" edge="1">
          <mxGeometry relative="1" as="geometry">
            <mxPoint x="-160.44999999999982" y="259.9999999999998" as="sourcePoint" />
          </mxGeometry>
        </mxCell>
        <mxCell id="t5bb0kTeRHAlqyquHPTp-3" value="&lt;font color=&quot;#516a8f&quot;&gt;給予使用者&lt;br&gt;帳號對應的權限&lt;/font&gt;" style="rounded=1;whiteSpace=wrap;html=1;shadow=0;comic=0;labelBackgroundColor=none;strokeWidth=1;fontFamily=Verdana;fontSize=12;align=center;arcSize=15;fillColor=#dae8fc;strokeColor=#516A8F;glass=0;" parent="1c1d494c118603dd-3" vertex="1">
          <mxGeometry x="85" y="400" width="100" height="40" as="geometry" />
        </mxCell>
        <mxCell id="t5bb0kTeRHAlqyquHPTp-5" style="edgeStyle=none;rounded=0;html=1;labelBackgroundColor=none;startArrow=none;startFill=0;startSize=5;endArrow=classic;endFill=1;endSize=5;jettySize=auto;orthogonalLoop=1;strokeWidth=1;fontFamily=Verdana;fontSize=12;exitX=0.5;exitY=1;exitDx=0;exitDy=0;strokeColor=#516A8F;arcSize=20;entryX=0.5;entryY=0;entryDx=0;entryDy=0;" parent="1c1d494c118603dd-3" source="t5bb0kTeRHAlqyquHPTp-3" target="CdWKcS6R5QREeGc17HmZ-9" edge="1">
          <mxGeometry relative="1" as="geometry">
            <mxPoint x="145" y="285" as="sourcePoint" />
            <mxPoint x="145" y="320" as="targetPoint" />
          </mxGeometry>
        </mxCell>
        <mxCell id="CdWKcS6R5QREeGc17HmZ-16" style="edgeStyle=none;rounded=1;html=1;labelBackgroundColor=none;startArrow=none;startFill=0;startSize=5;endArrow=classic;endFill=1;endSize=5;jettySize=auto;orthogonalLoop=1;strokeWidth=1;fontFamily=Verdana;fontSize=12;strokeColor=#516A8F;entryX=1;entryY=0.5;entryDx=0;entryDy=0;arcSize=15;exitX=0;exitY=0.5;exitDx=0;exitDy=0;" parent="1" source="CdWKcS6R5QREeGc17HmZ-35" target="CdWKcS6R5QREeGc17HmZ-15" edge="1">
          <mxGeometry relative="1" as="geometry">
            <mxPoint x="580" y="250" as="sourcePoint" />
            <mxPoint x="315" y="315" as="targetPoint" />
            <Array as="points" />
          </mxGeometry>
        </mxCell>
        <mxCell id="CdWKcS6R5QREeGc17HmZ-27" style="edgeStyle=none;rounded=0;html=1;labelBackgroundColor=none;startArrow=none;startFill=0;startSize=5;endArrow=classic;endFill=1;endSize=5;jettySize=auto;orthogonalLoop=1;strokeWidth=1;fontFamily=Verdana;fontSize=12;exitX=1;exitY=0.5;exitDx=0;exitDy=0;strokeColor=#516A8F;arcSize=20;entryX=0;entryY=0.5;entryDx=0;entryDy=0;" parent="1" source="CdWKcS6R5QREeGc17HmZ-17" target="CdWKcS6R5QREeGc17HmZ-20" edge="1">
          <mxGeometry relative="1" as="geometry">
            <mxPoint x="310" y="320" as="sourcePoint" />
            <mxPoint x="310" y="380" as="targetPoint" />
          </mxGeometry>
        </mxCell>
        <mxCell id="t5bb0kTeRHAlqyquHPTp-6" style="rounded=0;orthogonalLoop=1;jettySize=auto;html=1;strokeColor=#516A8F;endArrow=none;endFill=0;dashed=1;strokeWidth=1;entryX=0;entryY=1;entryDx=0;entryDy=0;exitX=0;exitY=0;exitDx=135;exitDy=36;exitPerimeter=0;" parent="1" source="t5bb0kTeRHAlqyquHPTp-7" target="CdWKcS6R5QREeGc17HmZ-20" edge="1">
          <mxGeometry relative="1" as="geometry">
            <mxPoint x="332.5" y="505" as="targetPoint" />
          </mxGeometry>
        </mxCell>
      </root>
    </mxGraphModel>
  </diagram>
</mxfile>
